<svg xmlns="http://www.w3.org/2000/svg" height="22.179" width="34.835" version="1.2" viewBox="0 0 26.125967 16.634497">
<path d="m25.996 4.9968c-0.842-4.4447-5.286-4.9968-5.286-4.9968h-19.791c-0.65763 0-0.9095 0.64172-0.91198 0.96335-0.0003866 0.04185 0.0011422 0.20965 0.0011422 0.20965s-0.030958 8.3607 0.02771 12.826c0.17849 2.636 2.8199 2.635 2.8199 2.635s8.9932-0.026 13.016-0.052c2.652-0.465 2.919-2.791 2.893-4.064 4.733 0.263 8.072-3.0768 7.231-7.5212m-5.317 4.3389c-1.009 0.1262-1.83 0.0316-1.83 0.0316v-6.1809h1.925s2.144 0.5991 2.144 2.8696c0 2.0813-1.072 2.9013-2.239 3.2797" fill="#fff"/>
<path d="m9.2638 13.167c0.2056 0.104 0.3369-0.025 0.3369-0.025s3.0073-2.745 4.3633-4.3259c1.205-1.4143 1.283-3.7978-0.786-4.6883-2.07-0.8905-3.773 1.0476-3.773 1.0476-1.4768-1.6241-3.7117-1.542-4.7454-0.4428-1.0337 1.0993-0.6729 2.9858 0.0984 4.0357 0.7239 0.9858 3.9058 3.8217 4.3881 4.3007 0 0 0.0352 0.037 0.1177 0.098" fill="#ff5e5e"/>
</svg>
